<?xml version="1.0" standalone="no"?>
<!DOCTYPE svg PUBLIC "-//W3C//DTD SVG 20010904//EN"
 "http://www.w3.org/TR/2001/REC-SVG-20010904/DTD/svg10.dtd">
<svg version="1.0" xmlns="http://www.w3.org/2000/svg"
 width="1280.000000pt" height="1280.000000pt" viewBox="0 0 1280.000000 1280.000000"
 preserveAspectRatio="xMidYMid meet">
<metadata>
Created by potrace 1.14, written by Peter Selinger 2001-2017
</metadata>
<g transform="translate(0.000000,1280.000000) scale(0.100000,-0.100000)"
fill="#000000" stroke="none">
<path d="M6138 11755 c-2 -1 -53 -5 -114 -9 -61 -4 -121 -8 -135 -11 -13 -2
-51 -6 -84 -10 -369 -37 -867 -168 -1235 -326 -123 -52 -423 -210 -547 -287
-111 -70 -315 -213 -388 -274 -420 -348 -707 -665 -995 -1103 -169 -255 -307
-515 -465 -870 -60 -137 -215 -576 -215 -611 0 -12 -84 -14 -537 -15 -296 -1
-549 -2 -563 -3 -118 -12 -224 -43 -341 -101 -219 -108 -403 -324 -473 -555
-47 -155 -45 -7 -42 -2970 l2 -2785 22 -80 c50 -174 159 -356 278 -463 109
-98 263 -184 389 -216 33 -8 74 -19 90 -23 17 -4 2532 -9 5590 -10 4976 -2
5568 -1 5640 13 183 35 336 109 469 226 149 130 273 361 305 563 3 22 6 1289
6 2815 l0 2775 -22 87 c-45 177 -127 322 -253 448 -139 139 -291 220 -500 264
-50 11 -190 14 -615 15 -302 1 -552 5 -556 9 -3 4 -27 72 -53 152 -45 139
-104 302 -131 365 -7 17 -32 75 -55 130 -318 747 -794 1400 -1365 1876 -143
119 -185 150 -355 265 -255 172 -503 303 -765 405 -71 27 -139 54 -150 59 -60
27 -419 129 -510 146 -16 3 -70 14 -120 24 -156 33 -233 44 -495 71 -90 10
-703 22 -712 14z m572 -1499 c14 -2 57 -7 95 -11 39 -4 77 -8 85 -10 8 -2 38
-6 65 -9 28 -4 57 -9 65 -11 8 -2 29 -7 45 -10 311 -56 665 -194 930 -363 336
-214 637 -512 886 -877 119 -173 276 -462 362 -662 l26 -63 -2869 0 -2870 0
12 28 c64 152 283 573 308 592 4 3 13 16 20 30 22 44 151 222 239 330 90 111
293 319 376 385 28 22 55 45 60 52 24 27 273 196 372 251 301 167 662 286 992
327 30 4 62 8 71 10 10 2 64 7 121 10 57 4 106 9 108 11 5 4 468 -4 501 -10z"/>
</g>
</svg>
